<svg xmlns="http://www.w3.org/2000/svg" xmlns:xlink="http://www.w3.org/1999/xlink" viewBox="0 0 1867.198 811">
  <defs>
    <style>
      .cls-1, .cls-5 {
        fill: #002bff;
      }

      .cls-1 {
        stroke: #ff00a1;
        stroke-width: 8px;
      }

      .cls-2, .cls-5 {
        stroke: #707070;
      }

      .cls-3 {
        fill: #8b6f6f;
      }

      .cls-4 {
        fill: #fff;
      }

      .cls-5 {
        stroke-width: 0.5px;
        font-size: 195px;
        font-family: Garamond-Bold, Garamond;
        font-weight: 700;
      }

      .cls-6 {
        stroke: none;
      }

      .cls-7 {
        fill: none;
      }

      .cls-8 {
        filter: url(#Builders_Co-Creators);
      }

      .cls-9 {
        filter: url(#Path_56);
      }
    </style>
    <filter id="Path_56" x="771.247" y="30.61" width="121.79" height="39.73" filterUnits="userSpaceOnUse">
      <feOffset dx="1" input="SourceAlpha"/>
      <feGaussianBlur stdDeviation="0.5" result="blur"/>
      <feFlood/>
      <feComposite operator="in" in2="blur"/>
      <feComposite in="SourceGraphic"/>
    </filter>
    <filter id="Builders_Co-Creators" x="854.198" y="416" width="1013" height="395" filterUnits="userSpaceOnUse">
      <feOffset dx="8" dy="3" input="SourceAlpha"/>
      <feGaussianBlur stdDeviation="3" result="blur-2"/>
      <feFlood/>
      <feComposite operator="in" in2="blur-2"/>
      <feComposite in="SourceGraphic"/>
    </filter>
  </defs>
  <g id="Group_105" data-name="Group 105" transform="translate(-7893.802 5969)">
    <g id="Group_104" data-name="Group 104" transform="translate(2680 -7618)">
      <path id="Path_49" data-name="Path 49" class="cls-1" d="M5222.286,2377.712l304.463-297.986h75.578l382.2-386.518,177.883-37.709-448.473,490-76.408-49.831-287.355,302.3Z" transform="translate(0 0)"/>
      <path id="Path_50" data-name="Path 50" class="cls-2" d="M5347.35,2144.333l447.193-482.972,426.754,399.92h-56.219l-376.924-348.812-412.7,452.307Z" transform="translate(387.399 18.156)"/>
      <path id="Path_51" data-name="Path 51" class="cls-2" d="M5262.75,2035.37l251.607-262.811L5889.67,2035.37h-46.2l-329.117-225.462L5305.994,2035.37Z" transform="translate(125.341 362.603)"/>
      <g id="Group_72" data-name="Group 72" transform="translate(5606.29 2259.961)">
        <g id="Rectangle_22" data-name="Rectangle 22" class="cls-2" transform="translate(40.276 38.23)">
          <rect class="cls-6" width="36.248" height="42.29"/>
          <rect class="cls-7" x="0.5" y="0.5" width="35.248" height="41.29"/>
        </g>
        <g id="Rectangle_23" data-name="Rectangle 23" class="cls-2" transform="translate(0 38.23)">
          <rect class="cls-6" width="36.248" height="42.29"/>
          <rect class="cls-7" x="0.5" y="0.5" width="35.248" height="41.29"/>
        </g>
        <path id="Intersection_1" data-name="Intersection 1" class="cls-2" d="M0,33.2V0A33.042,33.042,0,0,1,17.117,4.748l10.9,10.641A33.039,33.039,0,0,1,33.2,33.2Z" transform="translate(41.284 0)"/>
        <path id="Intersection_2" data-name="Intersection 2" class="cls-2" d="M34.2,33.2V0A34.826,34.826,0,0,0,16.567,4.748L5.333,15.388A32.332,32.332,0,0,0,0,33.2Z" transform="translate(1.038 0)"/>
      </g>
      <path id="Path_55" data-name="Path 55" class="cls-3" d="M5447.943,1689.516l-53.6,61.942,107.236-12.361,61.111-75.937Z" transform="translate(540.373 23.728)"/>
      <g id="Group_73" data-name="Group 73" transform="translate(5936.831 1687.24)">
        <rect id="Rectangle_31" data-name="Rectangle 31" class="cls-4" width="4.098" height="81.952" rx="1" transform="matrix(0.755, 0.656, -0.656, 0.755, 53.765, 24.586)"/>
        <rect id="Rectangle_32" data-name="Rectangle 32" class="cls-4" width="4.098" height="81.952" rx="1" transform="matrix(0.755, 0.656, -0.656, 0.755, 70.155, 20.488)"/>
        <rect id="Rectangle_33" data-name="Rectangle 33" class="cls-4" width="4.098" height="81.952" rx="1" transform="matrix(0.755, 0.656, -0.656, 0.755, 86.546, 16.39)"/>
        <rect id="Rectangle_34" data-name="Rectangle 34" class="cls-4" width="4.098" height="81.952" rx="1" transform="matrix(0.755, 0.656, -0.656, 0.755, 98.839, 16.39)"/>
        <rect id="Rectangle_35" data-name="Rectangle 35" class="cls-4" width="4.098" height="81.952" rx="1" transform="matrix(0.755, 0.656, -0.656, 0.755, 115.229, 12.293)"/>
        <rect id="Rectangle_36" data-name="Rectangle 36" class="cls-4" width="4.098" height="81.952" rx="1" transform="matrix(0.755, 0.656, -0.656, 0.755, 131.62, 8.195)"/>
        <rect id="Rectangle_37" data-name="Rectangle 37" class="cls-4" width="4.098" height="81.952" rx="1" transform="matrix(0.755, 0.656, -0.656, 0.755, 148.01, 4.098)"/>
        <rect id="Rectangle_38" data-name="Rectangle 38" class="cls-4" width="4.098" height="81.952" rx="1" transform="matrix(0.755, 0.656, -0.656, 0.755, 164.4, 0)"/>
      </g>
      <g class="cls-9" transform="matrix(1, 0, 0, 1, 5213.8, 1649)">
        <path id="Path_56-2" data-name="Path 56" class="cls-4" d="M6.146,0H112.684a6.146,6.146,0,1,1,0,12.293H6.146A6.146,6.146,0,0,1,6.146,0Z" transform="matrix(0.98, -0.21, 0.21, 0.98, 771.75, 56.82)"/>
      </g>
      <g class="cls-8" transform="matrix(1, 0, 0, 1, 5213.8, 1649)">
        <text id="Builders_Co-Creators-2" data-name="Builders &amp;
Co-Creators" class="cls-5" transform="translate(855.7 590.5)"><tspan x="0" y="0">Builders &amp;</tspan><tspan x="0" y="157">Co-Creators</tspan></text>
      </g>
    </g>
    <g id="carpenter-3201200" transform="translate(8594.836 -6197.145)">
      <g id="Group_100" data-name="Group 100">
        <path id="Path_168" data-name="Path 168" d="M175.611,549.888a5.216,5.216,0,0,1,3.016,1.089c.726.621,3.19,2.386,5.46,3.912s4.2,2.91,4.347,3.053a7.026,7.026,0,0,0,1.208.811c.53.285,1.93,1.047,3.136,1.665a41.123,41.123,0,0,0,4.438,2.042c2.266.8,2.315.9,2.326,2.776.006,1.013-.111,1.7-.279,1.7a.08.08,0,0,1-.048-.018.3.3,0,0,0-.252-.1,1.032,1.032,0,0,0-.613.25,4.415,4.415,0,0,1-2.113.638c-.818.053-1.49.2-1.489.346a6.7,6.7,0,0,1-2.062,1.215,17.631,17.631,0,0,0-2.253,1.216,14.353,14.353,0,0,1-2.254,1.168,7.082,7.082,0,0,0-2.921,2.422,46.034,46.034,0,0,0-3.02,9.928,2.363,2.363,0,0,1-.1.5l-.813-.52h0a17.035,17.035,0,0,1-1.294-1.716h0q-2.285-9.1-6-32.37h0l1.557-.009ZM205.8,437.756c-.824,0-1.827.044-3.121.126-2.741.112-5.24.464-5.575.755a1.4,1.4,0,0,1-.878.3,1.071,1.071,0,0,1-.468-.1,1.157,1.157,0,0,0-.366-.049c-1.091,0-3.333.86-3.33,1.37,0,.192-.623.436-1.344.585-1.97.4-3.69,2.379-5.16,6.044a24.743,24.743,0,0,1-1.805,3.859,5.773,5.773,0,0,0-.616,1.591,14.552,14.552,0,0,1-1.185,2.989c-.9,1.738-1.042,2.7-.919,7.27l.079,5.243-8.525,5.86c-2.04,2.37,4.168-.337,6.5-.337.616,0,1.411-.051,2.4-.137s1.719-.156,2.28-.156a3.2,3.2,0,0,1,2.487.945c1.257,1.051,1.307,1.339,1.333,5.669.062,2.5.269,4.857.559,5.144a4.6,4.6,0,0,0,2.742.609h.271c1.878,0,2.253.169,2.722,1.186.292.67.823,1.2,1.16,1.2h0a1.239,1.239,0,0,1,.868.716,2.926,2.926,0,0,0,1.451,1.242,2.962,2.962,0,0,1,1.5,2.252c.412,2.175,1.6,3.25,3.773,3.25a14.5,14.5,0,0,0,4.707-1.039,16.262,16.262,0,0,1,4.229-.747l2.116-.012h0l-.319,2.984c-.318,3.129-1.492,7.995-2.16,8.816-1.194,1.547-1.467,4.146-.868,7.847a15.038,15.038,0,0,1,.22,4.713,5.469,5.469,0,0,0-.277,1.974,5.075,5.075,0,0,1-1.042,2.652,8.413,8.413,0,0,0-1.417,4.386,12.53,12.53,0,0,1-1.177,4.336,11.887,11.887,0,0,0-1.226,4.289c-.183,1.492-.607,2.986-.991,3.277a5.965,5.965,0,0,0-.946,2.652c-.137,1.2-.564,2.216-.853,2.217a24.267,24.267,0,0,1-2.683.2,3.027,3.027,0,0,1-1.261-.173,11.536,11.536,0,0,0-2.649-.417c-1.2-.041-2.262-.324-2.312-.564a.713.713,0,0,0-.578-.478h0a11.947,11.947,0,0,1-2.557-1.428,8.169,8.169,0,0,0-3.179-1.424h-.02c-.569,0-1-.189-1-.427s-.629-.525-1.4-.665c-.915-.187-1.931-1.047-3.1-2.628a27.138,27.138,0,0,0-3.921-4.21c-1.789-1.481-2.225-2.1-2.233-3.4a2.021,2.021,0,0,1,1.046-2.123c4.843-2.578,6.313-6.2,3.984-9.6a10,10,0,0,1-1.315-2.638c-.283-1.259-2.113-1.928-5.383-1.928q-1.081,0-2.373.1c-1.347.1-2.256.169-2.876.169-1.238,0-1.325-.257-1.458-.961-.2-1.442-1.694-1.818-8.72-2.161-1.143-.054-2.159-.08-3.038-.08a11.427,11.427,0,0,0-3.695.36,21.951,21.951,0,0,1-2.977.98c-1.056.295-2.881.883-4.081,1.323a8.815,8.815,0,0,1-3.447.622c-.607,0-1.286-.038-2.082-.108-.715-.058-1.362-.088-1.95-.088-2.622,0-4.093.6-5.3,2.1l-.006.007h0l-.289.037q-.128.02-.245.045l-11.316-1.329a1.011,1.011,0,0,0-.236,2.005l10.531,1.238,1.372.559.506.154q.085.015.322.074h0a10.76,10.76,0,0,0,6.27,1.691h.1l2.549-.015-.132,1.973c-.179,2.263.595,3.124,3.292,3.589,1.541.279,1.59.327,1.6,2.829.01,1.683.257,2.644.69,2.786a2.961,2.961,0,0,1,.926,1.918,5.827,5.827,0,0,0,1.17,2.639,25.2,25.2,0,0,1,1.7,2.107c.825,1.2,4.683,2.859,8.344,3.607,1.589.279,1.975.565,2.078,1.623a3.068,3.068,0,0,0,1.359,2.012c1.014.668,1.161,1.148,1.174,3.409.013,2.165.21,2.837,1.226,3.841a4.254,4.254,0,0,0,1.737,1.192h0a5.675,5.675,0,0,1,1.616.579h0q.265,1.254.491,2.291,3.661,17.073,6.667,24.793a37.218,37.218,0,0,0,3.65,7.32h0a26.4,26.4,0,0,0,2.365,5.6h0c.013,1.607,0,3.807-.026,6.861-.065,13.422-.445,22.324-.97,22.953-.43.579-.877,14.388-.944,27.426-.009,6.638-.143,8.467-.809,9.77-.855,1.689-1.271,4.625-1.48,9.87a8.8,8.8,0,0,1-.7,3.853c-.383.387-2.979.691-7.644.863-3.9.167-7.357.476-7.693.719a6.981,6.981,0,0,0-1.573,2.414,19.5,19.5,0,0,1-1.953,3.331c-1.05,1.3-1.05,1.4-.228,1.974a14.666,14.666,0,0,0,3.616,1.47c1.494.424,5.012,1.51,7.807,2.359l5.061,1.558,14.192.252c7.794.1,17.561.281,21.7.353l7.457.1,1.356-14.825,1.307-14.824-1.354-9.276c-1.454-10.18-1.8-11.964-2.378-11.964h0a8.154,8.154,0,0,1-1.22-3.024c-.738-2.786-.794-3.988-.364-12.65.306-5.245.65-12.126.776-15.254l.255-5.726,1.973.229a39.755,39.755,0,0,1,7.036,2.075c2.8,1.042,6.46,2.319,8.2,2.886,1.735.519,4.964,1.606,7.231,2.459a29,29,0,0,0,9.006,1.726l4.956.26.2,1.49c.149.817.409,3.99.571,7.02s.522,7.02.774,8.9c.251,1.826.613,5.961.824,9.135a31.223,31.223,0,0,0,.709,6.009c.386.286,2.556,17.3,2.924,22.689.109,2.067.407,3.748.6,3.748h0c.336,0,.487,1.112,1.506,10.815.715,6.971.813,7.259,3.613,8.975,6.949,4.3,7.964,5.27,14.526,5.27,2.374,0,5.474-.127,9.845-.267,7.792-.239,16.015-.721,18.274-1.023,2.26-.254,8.076-.962,12.98-1.52s10.383-1.312,12.256-1.708a206.518,206.518,0,0,1,23.8-2.835,44.986,44.986,0,0,0,8.076-1.01,7.114,7.114,0,0,1,2.422-.352,7.033,7.033,0,0,1,3.69.8,28.339,28.339,0,0,0,3.33,1.905,17.14,17.14,0,0,0,8.295,2.171,22.665,22.665,0,0,0,3.646-.318l3.7-.6.277-2.022c1.107-8.04.691-13.185-1.344-15.674-2.52-3.16-3.806-9.166-2.227-10.522.527-.436.524-.917.032-2.839-1.475-5.379-2.845-9.267-3.718-10.369a4.422,4.422,0,0,1-.926-1.966c-.005-.914-2.68-5.8-3.4-6.234a.255.255,0,0,0-.123-.023,13.01,13.01,0,0,0-3.333,1.2,54.366,54.366,0,0,1-5.664,2.246c-4.225,1.372-12.191,4.691-13,5.417a12.614,12.614,0,0,1-3.6,1.465c-1.537.394-4.754,1.519-7.106,2.447-2.773,1.136-4.063,1.551-5.336,1.551a6.917,6.917,0,0,1-.957-.071,8.691,8.691,0,0,0-1.308-.109c-1.7,0-3.014.652-4.789,2.214a5.28,5.28,0,0,1-3.836,1.42,23.338,23.338,0,0,1-5.493-.932,25.586,25.586,0,0,0-6.218-1.027c-2.926,0-5.542,1.024-10.508,3.483a11.485,11.485,0,0,1-4.862,1.567,5.594,5.594,0,0,1-2.348-.562c-1.3-.569-1.351-.665-1.079-3.505a29.567,29.567,0,0,1,1.359-6.07,54.226,54.226,0,0,0,1.98-6.7,29.47,29.47,0,0,1,1.511-4.868,31.679,31.679,0,0,0,1.276-3.856c.564-2.216.8-2.6,2.147-2.995,1.249-.344,1.774-1.021,2.914-3.433a17.716,17.716,0,0,0,1.422-3.616,35.012,35.012,0,0,1,1.657-4.484,51.722,51.722,0,0,0,4.112-20.517c.068-4.811-.086-6.494-.568-6.635-.82-.284-.806-6.1.055-6.832.384-.29.758-2.073.938-4.19a15.216,15.216,0,0,1,1.03-4.769c.667-1.062.617-1.35-.5-3.845a19.2,19.2,0,0,1-1.269-3.12,15.9,15.9,0,0,0-1.895-3.212c-1.7-2.539-4.857-7.86-6.706-11.409-.438-.815-.973-1.774-1.168-2.158-.243-.383-1.654-3.117-3.114-5.995-1.509-2.925-2.919-5.611-3.162-5.994a11.892,11.892,0,0,1-.974-1.919,12.052,12.052,0,0,0-.925-1.918c-.243-.384-1.022-1.918-1.7-3.358a108.513,108.513,0,0,0-6.029-10.836,30.851,30.851,0,0,1-2.284-3.835c-1.945-3.6-2.576-4.458-8.007-11.738-1.988-2.682-4.17-5.652-4.849-6.658a87.258,87.258,0,0,0-12.294-12.676c-1.45-1.049-4.495-3.437-6.814-5.251a60.111,60.111,0,0,0-6.425-4.532,13.984,13.984,0,0,1-3.383-2.53,3.789,3.789,0,0,0-2.168-1.286H246a21.8,21.8,0,0,1-6.5-2.27,2.086,2.086,0,0,1-1.069-1.87,9.2,9.2,0,0,0-1.512-3.551l-1.457-2.3-1.775.828a7.209,7.209,0,0,0-2.157,1.408,1.9,1.9,0,0,1-1.612.633,2.439,2.439,0,0,1-2.093-.9c-.682-1.343-.656-5.191.063-5.484.432-.2.479-.388.093-.674a18.429,18.429,0,0,1-1.565-4.32c-.294-1.088-.874-2.792-1.389-4.262-.161-.461,4.891-3.106,4.891-3.106l-.524-.679-5.5,1.208-1.333-2.086a1.455,1.455,0,0,1-.632-1.055c0-.384-.244-.719-.484-.719h0a8.466,8.466,0,0,1-2.561-1.957c-1.112-1.052-2.467-2.342-3.047-2.868a19.358,19.358,0,0,0-5.985-3.38A9.707,9.707,0,0,0,205.8,437.756Z"/>
      </g>
    </g>
  </g>
</svg>
